PathFileType	4	(X/Y/Z)	Kaydara	
DataRate	CameraRate	NumFrames	NumMarkers	Units	OrigDataRate	OrigDataStartFrame	OrigNumFrames	
24.00	24.00	5	28	mm	24.00	1	66	
Frame#	Time	reference			Hips			Spine			Spine1			Neck			Head			Head_End			LeftShoulder			LeftArm			LeftForeArm			LeftHand			LeftHand_End			RightShoulder			RightArm			RightForeArm			RightHand			RightHand_End			LeftUpLeg			LeftLeg			LeftFoot			LeftFoot_End			RightUpLeg			RightLeg			RightFoot			RightFoot_End			Tail			Tail1			Tail1_End			
		X1	Y1	Z1	X2	Y2	Z2	X3	Y3	Z3	X4	Y4	Z4	X5	Y5	Z5	X6	Y6	Z6	X7	Y7	Z7	X8	Y8	Z8	X9	Y9	Z9	X10	Y10	Z10	X11	Y11	Z11	X12	Y12	Z12	X13	Y13	Z13	X14	Y14	Z14	X15	Y15	Z15	X16	Y16	Z16	X17	Y17	Z17	X18	Y18	Z18	X19	Y19	Z19	X20	Y20	Z20	X21	Y21	Z21	X22	Y22	Z22	X23	Y23	Z23	X24	Y24	Z24	X25	Y25	Z25	X26	Y26	Z26	X27	Y27	Z27	X28	Y28	Z28	

1	0.000	949.43764	66.73111	-507.05143	245.81947	451.58893	25.80260	245.81951	451.58890	25.80254	261.39800	443.60049	214.99424	216.94036	419.87534	434.36058	196.85205	438.67060	571.63147	121.85929	425.74002	723.64754	260.97074	386.18233	412.79446	287.66068	342.23300	474.08156	298.70820	206.14143	407.29036	232.24358	74.30897	506.72195	218.57486	29.85319	561.68417	177.08088	396.47866	396.90654	121.99980	341.28335	414.84666	108.32929	271.48233	280.51531	149.87531	103.46819	238.93199	172.80683	35.31247	235.33492	290.93681	369.60550	-28.91743	325.31137	242.16161	61.50622	289.31159	122.65841	-68.19732	276.47217	17.19193	-48.80734	195.21283	372.74824	-28.73384	194.11442	259.57727	84.36401	210.86231	159.64724	-64.40928	228.63630	53.12415	-63.45170	245.30434	439.85672	-41.93738	228.17243	362.54237	-132.09831	207.74990	301.19305	-233.18827 
2	0.042	949.43764	66.73111	-507.05143	244.65212	454.40464	43.86621	244.65215	454.40461	43.86615	259.39895	445.24679	233.07151	215.90382	420.06763	452.46873	196.28888	439.12993	589.77125	121.06417	425.92132	741.64876	259.95537	386.64741	430.52469	286.53716	341.61431	491.06751	297.31136	209.18654	417.23778	230.70581	71.94242	508.95329	216.01298	27.44392	563.61589	175.96927	396.76548	415.03574	121.00481	342.04232	434.69735	104.95333	272.29499	300.60172	146.27770	106.09201	252.09541	169.41611	38.55081	242.77894	288.14567	371.36222	-10.57099	323.93646	239.84665	73.23037	288.08095	125.69570	-61.24621	276.01360	19.26719	-47.41321	192.46607	374.78767	-7.98806	189.27802	269.15350	112.14212	210.21925	154.81085	-25.28864	227.35556	48.85890	-13.26647	242.36855	441.51276	-23.62601	224.22985	366.47341	-115.49597	202.29392	308.63417	-218.32319 
3	0.083	949.43764	66.73111	-507.05143	243.65407	456.88742	62.04461	243.65411	456.88739	62.04455	255.13737	441.35306	251.05994	214.52637	421.81641	471.58210	195.52329	439.82677	609.11250	120.94329	424.50248	761.10917	258.19682	387.73171	449.89994	285.69032	340.23009	508.10396	294.62847	214.10968	423.73702	228.18407	72.34491	508.42393	213.98267	27.71006	563.10525	174.03584	397.69350	435.28349	119.07460	343.22513	455.64901	104.49256	273.74051	321.24950	143.68280	106.89466	273.18095	168.87702	41.42501	256.96457	285.47287	372.65149	8.13138	321.43708	238.07066	86.83697	286.36237	128.82092	-51.85068	275.53114	21.48497	-46.78335	189.89464	376.67599	12.77840	184.50317	277.33816	138.08973	209.60240	147.93670	15.51207	226.93277	43.73366	37.99282	239.79536	442.82603	-5.14172	221.21403	370.94131	-99.41434	198.21128	317.86707	-204.55234 
4	0.125	949.43764	66.73111	-507.05143	243.19379	458.21799	80.08071	243.19383	458.21797	80.08065	252.17646	441.48067	269.12873	213.04436	422.30742	489.94997	194.21802	439.50582	627.60855	119.94194	422.66854	779.59398	256.72191	388.35615	468.07364	284.39406	339.19855	524.79918	289.32466	219.03023	431.85139	226.79579	71.66396	509.68010	213.18595	26.73509	564.27098	172.42845	397.92441	453.96659	116.99885	344.96269	476.87754	108.62993	278.83588	340.27160	142.88494	106.59892	311.20232	169.77129	43.76462	288.55348	283.40278	372.89486	26.65468	320.06894	234.94657	98.94475	286.67550	130.83952	-44.04688	276.33888	23.34512	-45.49863	187.95400	377.77119	32.87915	180.64771	284.58092	162.73365	208.41084	141.37788	57.27233	225.36384	39.45902	88.72296	238.06605	443.25088	13.17550	219.63404	375.04169	-83.81817	196.56125	327.48017	-191.54722 
5	0.167	949.43764	66.73111	-507.05143	242.66920	458.45484	97.79715	242.66924	458.45481	97.79709	248.44781	443.17383	287.09341	210.66452	422.90610	508.05178	192.66267	438.95057	645.95975	118.10005	421.70459	797.75893	254.42184	389.30343	485.79985	282.45533	338.49484	540.86903	285.96745	223.86692	441.10865	225.11992	71.89444	511.00806	212.75357	25.82907	564.94367	169.99514	398.41966	472.19926	114.34829	346.93973	497.80277	104.17131	280.17089	361.63256	139.13186	105.63810	361.87914	170.61583	45.97212	336.72510	281.52038	372.20693	44.85356	318.42942	231.31994	111.09986	286.97034	132.49938	-36.02195	278.03928	25.26778	-45.27517	186.19575	377.98293	52.12295	176.58261	290.20015	185.54623	205.83231	135.08823	99.03184	222.31353	35.77474	138.13682	236.63643	442.80446	31.12417	218.27208	379.26903	-69.00577	194.86940	338.75378	-179.50839 
